<svg version="1.1" viewBox="0.0 0.0 600.0 600.0" fill="none" stroke="none" stroke-linecap="square" stroke-miterlimit="10" xmlns:xlink="http://www.w3.org/1999/xlink" xmlns="http://www.w3.org/2000/svg"><clipPath id="p.0"><path d="m0 0l600.0 0l0 600.0l-600.0 0l0 -600.0z" clip-rule="nonzero"/></clipPath><g clip-path="url(#p.0)"><path fill="#000000" fill-opacity="0.0" d="m0 0l600.0 0l0 600.0l-600.0 0z" fill-rule="evenodd"/><path fill="#3aa95c" d="m49.238846 234.43045l0 0c0 -32.30214 26.298866 -58.48819 58.740158 -58.48819l0 0c15.578857 0 30.519653 6.1621246 41.53557 17.130783c11.015915 10.968674 17.20459 25.845367 17.20459 41.357407l0 0c0 32.302124 -26.298859 58.48819 -58.740158 58.48819l0 0c-32.44129 0 -58.740158 -26.186066 -58.740158 -58.48819z" fill-rule="evenodd"/><path fill="#3aa95c" d="m258.9501 334.25198l0 0c0 -32.302155 26.298859 -58.48819 58.740143 -58.48819l0 0c15.578857 0 30.519653 6.1621094 41.535553 17.130768c11.01593 10.968689 17.20462 25.845367 17.20462 41.35742l0 0c0 32.302124 -26.29889 58.48816 -58.740173 58.48816l0 0c-32.441284 0 -58.740143 -26.186035 -58.740143 -58.48816z" fill-rule="evenodd"/><path fill="#3aa95c" d="m111.16259 56.85827l0 0c0 -32.302135 26.298866 -58.48819 58.740166 -58.48819l0 0c15.578857 0 30.519638 6.162131 41.535553 17.130795c11.015915 10.968663 17.204605 25.845364 17.204605 41.357395l0 0c0 32.30213 -26.298874 58.48819 -58.740158 58.48819l0 0c-32.4413 0 -58.740166 -26.186058 -58.740166 -58.48819z" fill-rule="evenodd"/><path fill="#3aa95c" d="m433.28082 208.72704l0 0c0 -32.30214 26.298859 -58.48819 58.740143 -58.48819l0 0c15.578857 0 30.519684 6.1621246 41.535553 17.130798c11.01593 10.968658 17.20459 25.845352 17.20459 41.35739l0 0c0 32.30214 -26.298828 58.488174 -58.740143 58.488174l0 0c-32.441284 0 -58.740143 -26.186035 -58.740143 -58.488174z" fill-rule="evenodd"/><path fill="#3aa95c" d="m157.294 543.1417l0 0c0 -32.302124 26.298874 -58.48819 58.740158 -58.48819l0 0c15.578857 0 30.519653 6.16214 41.53557 17.130798c11.0159 10.968658 17.20459 25.845367 17.20459 41.35739l0 0c0 32.302124 -26.298859 58.48822 -58.740158 58.48822l0 0c-32.441284 0 -58.740158 -26.186096 -58.740158 -58.48822z" fill-rule="evenodd"/><path fill="#3aa95c" d="m433.2808 451.2126l0 0c0 -32.302124 26.29889 -58.48819 58.740173 -58.48819l0 0c15.578857 0 30.519623 6.16214 41.535553 17.130798c11.01593 10.968658 17.20459 25.845367 17.20459 41.35739l0 0c0 32.302155 -26.298828 58.48819 -58.740143 58.48819l0 0c-32.441284 0 -58.740173 -26.186035 -58.740173 -58.48819z" fill-rule="evenodd"/><path fill="#000000" fill-opacity="0.0" d="m128.36719 98.21566l-20.377953 77.73229" fill-rule="evenodd"/><path stroke="#3aa95c" stroke-width="4.0" stroke-linejoin="round" stroke-linecap="butt" d="m128.36719 98.21566l-20.377953 77.73229" fill-rule="evenodd"/><path fill="#000000" fill-opacity="0.0" d="m149.51457 275.78784l109.44881 58.456696" fill-rule="evenodd"/><path stroke="#3aa95c" stroke-width="4.0" stroke-linejoin="round" stroke-linecap="butt" d="m149.51457 275.78784l109.44881 58.456696" fill-rule="evenodd"/><path fill="#000000" fill-opacity="0.0" d="m276.1547 375.60938l-60.12599 109.03937" fill-rule="evenodd"/><path stroke="#3aa95c" stroke-width="4.0" stroke-linejoin="round" stroke-linecap="butt" d="m276.1547 375.60938l-60.12599 109.03937" fill-rule="evenodd"/><path fill="#000000" fill-opacity="0.0" d="m359.2258 375.60938l91.24411 34.236206" fill-rule="evenodd"/><path stroke="#3aa95c" stroke-width="4.0" stroke-linejoin="round" stroke-linecap="butt" d="m359.2258 375.60938l91.24411 34.236206" fill-rule="evenodd"/><path fill="#000000" fill-opacity="0.0" d="m359.2258 292.89456l74.04724 -84.15747" fill-rule="evenodd"/><path stroke="#3aa95c" stroke-width="4.0" stroke-linejoin="round" stroke-linecap="butt" d="m359.2258 292.89456l74.04724 -84.15747" fill-rule="evenodd"/></g></svg>