<svg version="1.1" viewBox="0.0 0.0 512.0 512.0" fill="none" stroke="none" stroke-linecap="square" stroke-miterlimit="10" xmlns:xlink="http://www.w3.org/1999/xlink" xmlns="http://www.w3.org/2000/svg"><clipPath id="p.0"><path d="m0 0l512.0 0l0 512.0l-512.0 0l0 -512.0z" clip-rule="nonzero"/></clipPath><g clip-path="url(#p.0)"><path fill="#000000" fill-opacity="0.0" d="m0 0l512.0 0l0 512.0l-512.0 0z" fill-rule="evenodd"/><path fill="#3aa95c" d="m163.92284 233.68777l145.50441 -108.14028l16.852325 22.675026l-145.50444 108.140274z" fill-rule="evenodd"/><path fill="#000000" fill-opacity="0.0" d="m204.55225 221.15366l-26.236664 85.346924" fill-rule="evenodd"/><path stroke="#3aa95c" stroke-width="16.0" stroke-linejoin="round" stroke-linecap="butt" d="m204.55225 221.15366l-26.236664 85.346924" fill-rule="evenodd"/><path fill="#000000" fill-opacity="0.0" d="m256.9472 325.2329l-79.31392 -27.306427" fill-rule="evenodd"/><path stroke="#3aa95c" stroke-width="16.0" stroke-linejoin="round" stroke-linecap="butt" d="m256.9472 325.2329l-79.31392 -27.306427" fill-rule="evenodd"/><path fill="#000000" fill-opacity="0.0" d="m314.22827 139.64137l-26.236664 85.34694" fill-rule="evenodd"/><path stroke="#3aa95c" stroke-width="16.0" stroke-linejoin="round" stroke-linecap="butt" d="m314.22827 139.64137l-26.236664 85.34694" fill-rule="evenodd"/><path fill="#000000" fill-opacity="0.0" d="m366.62323 243.72064l-79.313934 -27.306412" fill-rule="evenodd"/><path stroke="#3aa95c" stroke-width="16.0" stroke-linejoin="round" stroke-linecap="butt" d="m366.62323 243.72064l-79.313934 -27.306412" fill-rule="evenodd"/><path fill="#3aa95c" d="m276.08197 126.493965l44.616974 -33.15976l16.852295 22.675026l-44.616974 33.15976z" fill-rule="evenodd"/><path fill="#3aa95c" d="m-115.1063 376.25723l649.5748 0l0 24.59842l-649.5748 0z" fill-rule="evenodd"/><path fill="#3aa95c" d="m242.9294 333.96063l299.33856 0l0 47.748016l-299.33856 0z" fill-rule="evenodd"/><path fill="#3aa95c" d="m293.54724 290.71915l248.72443 0l0 47.748047l-248.72443 0z" fill-rule="evenodd"/><path fill="#3aa95c" d="m335.96457 253.99213l248.7244 0l0 47.748016l-248.7244 0z" fill-rule="evenodd"/><path fill="#3aa95c" d="m378.3819 212.46982l248.72443 0l0 47.748016l-248.72443 0z" fill-rule="evenodd"/></g></svg>