<svg version="1.1" viewBox="0.0 0.0 512.0 512.0" fill="none" stroke="none" stroke-linecap="square" stroke-miterlimit="10" xmlns:xlink="http://www.w3.org/1999/xlink" xmlns="http://www.w3.org/2000/svg"><clipPath id="p.0"><path d="m0 0l512.0 0l0 512.0l-512.0 0l0 -512.0z" clip-rule="nonzero"/></clipPath><g clip-path="url(#p.0)"><path fill="#000000" fill-opacity="0.0" d="m0 0l512.0 0l0 512.0l-512.0 0z" fill-rule="evenodd"/><path fill="#3aa95c" d="m41.521008 251.00351l184.80518 -140.93922l21.404099 29.552368l-184.80518 140.93922z" fill-rule="evenodd"/><path fill="#000000" fill-opacity="0.0" d="m93.12443 234.66779l-33.323185 111.232666" fill-rule="evenodd"/><path stroke="#3aa95c" stroke-width="16.0" stroke-linejoin="round" stroke-linecap="butt" d="m93.12443 234.66779l-33.323185 111.232666" fill-rule="evenodd"/><path fill="#000000" fill-opacity="0.0" d="m159.67128 370.3143l-100.736626 -35.58847" fill-rule="evenodd"/><path stroke="#3aa95c" stroke-width="16.0" stroke-linejoin="round" stroke-linecap="butt" d="m159.67128 370.3143l-100.736626 -35.58847" fill-rule="evenodd"/><path fill="#000000" fill-opacity="0.0" d="m232.42395 128.43285l-33.32318 111.232666" fill-rule="evenodd"/><path stroke="#3aa95c" stroke-width="16.0" stroke-linejoin="round" stroke-linecap="butt" d="m232.42395 128.43285l-33.32318 111.232666" fill-rule="evenodd"/><path fill="#000000" fill-opacity="0.0" d="m298.9708 264.07935l-100.73662 -35.588455" fill-rule="evenodd"/><path stroke="#3aa95c" stroke-width="16.0" stroke-linejoin="round" stroke-linecap="butt" d="m298.9708 264.07935l-100.73662 -35.588455" fill-rule="evenodd"/><path fill="#3aa95c" d="m183.97432 111.29782l56.668015 -43.217117l21.404114 29.552368l-56.66803 43.217117z" fill-rule="evenodd"/><path fill="#3aa95c" d="m141.86723 381.68912l380.18994 0l0 62.23001l-380.18994 0z" fill-rule="evenodd"/><path fill="#3aa95c" d="m206.15698 325.33252l315.90485 0l0 62.23001l-315.90485 0z" fill-rule="evenodd"/><path fill="#3aa95c" d="m260.03122 277.46616l315.90488 0l0 62.23001l-315.90488 0z" fill-rule="evenodd"/><path fill="#3aa95c" d="m313.90546 223.35014l315.90485 0l0 62.229996l-315.90485 0z" fill-rule="evenodd"/></g></svg>