<svg version="1.1" viewBox="0.0 0.0 512.0 512.0" fill="none" stroke="none" stroke-linecap="square" stroke-miterlimit="10" xmlns:xlink="http://www.w3.org/1999/xlink" xmlns="http://www.w3.org/2000/svg"><clipPath id="p.0"><path d="m0 0l512.0 0l0 512.0l-512.0 0l0 -512.0z" clip-rule="nonzero"/></clipPath><g clip-path="url(#p.0)"><path fill="#000000" fill-opacity="0.0" d="m0 0l512.0 0l0 512.0l-512.0 0z" fill-rule="evenodd"/><path fill="#3aa95c" d="m0 422.22308l512.0 0l0 31.874023l-512.0 0z" fill-rule="evenodd"/><path fill="#000000" fill-opacity="0.0" d="m56.47769 444.07916l0.01574707 -50.55121l0 0c0.00869751 -27.91864 18.777481 -50.551178 41.921257 -50.551178c23.143776 0 41.89846 22.632538 41.889763 50.551178l-0.01574707 50.55121z" fill-rule="evenodd"/><path stroke="#3aa95c" stroke-width="16.0" stroke-linejoin="round" stroke-linecap="butt" d="m56.47769 444.07916l0.01574707 -50.55121l0 0c0.00869751 -27.91864 18.777481 -50.551178 41.921257 -50.551178c23.143776 0 41.89846 22.632538 41.889763 50.551178l-0.01574707 50.55121z" fill-rule="evenodd"/><path fill="#000000" fill-opacity="0.0" d="m370.38583 444.07916l0.01574707 -50.55121l0 0c0.00869751 -27.91864 18.777466 -50.551178 41.921265 -50.551178c23.143768 0 41.898438 22.632538 41.88974 50.551178l-0.01574707 50.55121z" fill-rule="evenodd"/><path stroke="#3aa95c" stroke-width="16.0" stroke-linejoin="round" stroke-linecap="butt" d="m370.38583 444.07916l0.01574707 -50.55121l0 0c0.00869751 -27.91864 18.777466 -50.551178 41.921265 -50.551178c23.143768 0 41.898438 22.632538 41.88974 50.551178l-0.01574707 50.55121z" fill-rule="evenodd"/><path fill="#000000" fill-opacity="0.0" d="m98.414696 342.97678l-0.03149414 -85.63779" fill-rule="evenodd"/><path stroke="#3aa95c" stroke-width="16.0" stroke-linejoin="round" stroke-linecap="butt" d="m98.414696 342.97678l-0.03149414 -85.63779" fill-rule="evenodd"/><path fill="#000000" fill-opacity="0.0" d="m412.32285 342.97678l-0.03149414 -85.63779" fill-rule="evenodd"/><path stroke="#3aa95c" stroke-width="16.0" stroke-linejoin="round" stroke-linecap="butt" d="m412.32285 342.97678l-0.03149414 -85.63779" fill-rule="evenodd"/><path fill="#000000" fill-opacity="0.0" d="m56.47769 214.51968l0 0c0 -23.648224 18.768784 -42.818893 41.921257 -42.818893l0 0c11.11821 0 21.781044 4.511261 29.642815 12.541367c7.8617554 8.03009 12.278442 18.92125 12.278442 30.277527l0 0c0 23.648224 -18.768784 42.81891 -41.921257 42.81891l0 0c-23.152473 0 -41.921257 -19.170685 -41.921257 -42.81891z" fill-rule="evenodd"/><path stroke="#3aa95c" stroke-width="16.0" stroke-linejoin="round" stroke-linecap="butt" d="m56.47769 214.51968l0 0c0 -23.648224 18.768784 -42.818893 41.921257 -42.818893l0 0c11.11821 0 21.781044 4.511261 29.642815 12.541367c7.8617554 8.03009 12.278442 18.92125 12.278442 30.277527l0 0c0 23.648224 -18.768784 42.81891 -41.921257 42.81891l0 0c-23.152473 0 -41.921257 -19.170685 -41.921257 -42.81891z" fill-rule="evenodd"/><path fill="#000000" fill-opacity="0.0" d="m370.38583 214.51968l0 0c0 -23.648224 18.768768 -42.818893 41.921265 -42.818893l0 0c11.118195 0 21.781036 4.511261 29.642792 12.541367c7.8617554 8.03009 12.278442 18.92125 12.278442 30.277527l0 0c0 23.648224 -18.768768 42.81891 -41.921234 42.81891l0 0c-23.152496 0 -41.921265 -19.170685 -41.921265 -42.81891z" fill-rule="evenodd"/><path stroke="#3aa95c" stroke-width="16.0" stroke-linejoin="round" stroke-linecap="butt" d="m370.38583 214.51968l0 0c0 -23.648224 18.768768 -42.818893 41.921265 -42.818893l0 0c11.118195 0 21.781036 4.511261 29.642792 12.541367c7.8617554 8.03009 12.278442 18.92125 12.278442 30.277527l0 0c0 23.648224 -18.768768 42.81891 -41.921234 42.81891l0 0c-23.152496 0 -41.921265 -19.170685 -41.921265 -42.81891z" fill-rule="evenodd"/><path fill="#000000" fill-opacity="0.0" d="m128.04176 184.24216l30.078735 -76.72441" fill-rule="evenodd"/><path stroke="#3aa95c" stroke-width="16.0" stroke-linejoin="round" stroke-linecap="butt" d="m128.04176 184.24216l30.078735 -76.72441" fill-rule="evenodd"/><path fill="#000000" fill-opacity="0.0" d="m289.7194 168.05318l92.944885 16.18898" fill-rule="evenodd"/><path stroke="#3aa95c" stroke-width="16.0" stroke-linejoin="round" stroke-linecap="butt" d="m289.7194 168.05318l92.944885 16.18898" fill-rule="evenodd"/><path fill="#000000" fill-opacity="0.0" d="m299.04044 130.85072l-12.124329 70.98331" fill-rule="evenodd"/><path stroke="#3aa95c" stroke-width="12.0" stroke-linejoin="round" stroke-linecap="butt" d="m299.04044 130.85072l-12.124329 70.98331" fill-rule="evenodd"/><path fill="#000000" fill-opacity="0.0" d="m298.85718 137.05727l-43.893524 -8.0914" fill-rule="evenodd"/><path stroke="#3aa95c" stroke-width="12.0" stroke-linejoin="round" stroke-linecap="butt" d="m298.85718 137.05727l-43.893524 -8.0914" fill-rule="evenodd"/><path fill="#000000" fill-opacity="0.0" d="m287.9925 195.99498l-43.893524 -8.0914" fill-rule="evenodd"/><path stroke="#3aa95c" stroke-width="12.0" stroke-linejoin="round" stroke-linecap="butt" d="m287.9925 195.99498l-43.893524 -8.0914" fill-rule="evenodd"/><path fill="#000000" fill-opacity="0.0" d="m195.64774 124.37928l-67.60635 -24.777992" fill-rule="evenodd"/><path stroke="#3aa95c" stroke-width="12.0" stroke-linejoin="round" stroke-linecap="butt" d="m195.64774 124.37928l-67.60635 -24.777992" fill-rule="evenodd"/><path fill="#000000" fill-opacity="0.0" d="m189.57767 123.07504l15.906097 -41.69774" fill-rule="evenodd"/><path stroke="#3aa95c" stroke-width="12.0" stroke-linejoin="round" stroke-linecap="butt" d="m189.57767 123.07504l15.906097 -41.69774" fill-rule="evenodd"/><path fill="#000000" fill-opacity="0.0" d="m133.58833 101.71723l15.906097 -41.697735" fill-rule="evenodd"/><path stroke="#3aa95c" stroke-width="12.0" stroke-linejoin="round" stroke-linecap="butt" d="m133.58833 101.71723l15.906097 -41.697735" fill-rule="evenodd"/><path fill="#3aa95c" d="m394.0866 214.51968l0 0c0 -10.55864 8.157593 -19.118103 18.22049 -19.118103l0 0c4.832367 0 9.466797 2.0142212 12.88382 5.5995636c3.4169922 3.5853424 5.3366394 8.448105 5.3366394 13.518539l0 0c0 10.55864 -8.157593 19.118118 -18.220459 19.118118l0 0c-10.062897 0 -18.22049 -8.559479 -18.22049 -19.118118z" fill-rule="evenodd"/><path fill="#3aa95c" d="m80.178474 214.51968l0 0c0 -10.55864 8.157585 -19.118103 18.220474 -19.118103l0 0c4.8323746 0 9.46682 2.0142212 12.88382 5.5995636c3.4169998 3.5853424 5.3366547 8.448105 5.3366547 13.518539l0 0c0 10.55864 -8.157585 19.118118 -18.220474 19.118118l0 0c-10.062889 0 -18.220474 -8.559479 -18.220474 -19.118118z" fill-rule="evenodd"/><path fill="#3aa95c" d="m79.27965 429.71753l0.01574707 -28.472443l0 0c0.00869751 -15.724915 8.568169 -28.472443 19.11811 -28.472443c10.549942 0 19.095314 12.747528 19.086617 28.472443l-0.01574707 28.472443z" fill-rule="evenodd"/><path fill="#3aa95c" d="m393.18777 429.71753l0.01574707 -28.472443l0 0c0.00869751 -15.724915 8.568176 -28.472443 19.118134 -28.472443c10.549927 0 19.095306 12.747528 19.086609 28.472443l-0.01574707 28.472443z" fill-rule="evenodd"/></g></svg>